<?xml version="1.0" encoding="utf-8"?>
<!-- Generator: Adobe Illustrator 22.0.0, SVG Export Plug-In . SVG Version: 6.00 Build 0)  -->
<svg version="1.1" id="Layer_1" xmlns="http://www.w3.org/2000/svg" xmlns:xlink="http://www.w3.org/1999/xlink" x="0px" y="0px"
	 viewBox="0 0 261.1 85.5" style="enable-background:new 0 0 261.1 85.5;" xml:space="preserve">
<title>LogoSVG</title>
<g id="Layer_2_1_">
	<g id="logo">
		<path d="M49.9,51.3l0.3-1.3h-22l-0.3,1.4L49.9,51.3z M81,38.2h8l0.3-1.2h-8l4.2-16.1H78l-4.2,16.1h-6.2l-0.3,1.2h6.2l-9.1,35.6
			c-0.7,2.1-1.1,4.3-1.2,6.6c0,2.5,1.6,5.1,5.8,5.1c7.9,0,11.4-9.7,12-11.1L80,74c-0.7,1.7-3.8,8.1-7.2,8.1c-1.4,0-2.2-0.8-2.2-2.5
			c0-1.1,0.2-2.2,0.5-3.2L81,38.2z M16.8,27.5h-2.6l6.2-24h-1.8l0.2-0.7h4.4l-2.7,10.5c0.4-0.6,1.9-2.6,4.1-2.6
			c1.4-0.2,2.6,0.8,2.8,2.1c0,0.1,0,0.2,0,0.4c0,0.9-0.2,1.8-0.4,2.6l-2.1,7.8c-0.2,0.7-0.3,1.3-0.3,2c0,0.6,0.2,0.8,0.6,0.8
			c1.1,0,2.1-2,2.4-2.7l0.5,0.2c-0.3,0.7-1.5,3.9-4.2,3.9c-1,0.1-1.9-0.6-2-1.6c0-0.1,0-0.3,0-0.4c0.1-0.8,0.2-1.6,0.4-2.4l2.1-8
			c0.2-0.7,0.4-1.4,0.4-2.2c0-0.7-0.5-1.3-1.2-1.3c-0.1,0-0.1,0-0.2,0c-1.7,0-3.2,2.4-4,5.1L16.8,27.5 M62.5,0h-0.9L4.9,83.3H0.3
			L0,84.5h14.2l0.3-1.2H6.6L52.4,16h0.2L45,83.3h-6.7L38,84.5h20.7l0.3-1.2h-5.9L62.5,0z M242.4,49.7c2.8-8.5,4.6-12.4,8.8-12.4
			c2.7,0,4.4,1.3,4.4,2.9c0,2.4-1.6,3.5-1.6,5.7c-0.1,1.8,1.4,3.4,3.2,3.4c0.1,0,0.1,0,0.2,0c2.3,0,3.8-1.9,3.8-4.9
			s-1.8-8.5-10.1-8.5c-9,0-13.7,6.4-16.4,14.5c-1.8,5.2-4.6,13.7-4.6,23.1c0,4.8,2.2,12,11.7,12c9.9,0,14.2-12.4,14.8-13.9l-1.4-0.6
			c-1.4,3.2-5,11.8-11.4,11.8c-4.1,0-6.3-3.1-6.3-9C237.5,65.3,240.1,56.6,242.4,49.7L242.4,49.7z M102.5,74.4
			c-0.5,1.5-4.3,11.1-12,11.1c-4.3,0-5.8-2.5-5.8-5.1c0.1-2.2,0.5-4.4,1.2-6.6l18.1-70.9h-6.8l0.3-1.2H112L92.6,76.4
			c-0.3,1.1-0.4,2.1-0.4,3.2c0,1.7,0.5,2.5,2.1,2.5c3.3,0,6.5-6.4,7.2-8.1L102.5,74.4z M32.5,19.9c0.9-4.4,3.3-8.4,5.3-8.4
			c0.9,0,1.2,0.4,1.2,1.2C39,15.4,36.2,18.9,32.5,19.9L32.5,19.9z M152.1,84.5h-7.5l11.9-46.3h-6.8l0.4-1.2h14.3l-1.8,7.1
			c1.5-2.4,5.1-7.9,11.9-7.9c5.9,0,8,4,8,7.1c-0.1,2.5-0.5,4.9-1.3,7.3l-6.7,25.9c-0.3,1.1-0.5,2.2-0.5,3.3c0,1.4,0.4,2.4,2.3,2.4
			c3.2,0,6-6.1,7.1-8.1l1,0.4c-0.5,1.2-4.3,11.1-11.8,11.1c-4.2,0-6.1-2.3-6.1-5.1c0.2-2.2,0.5-4.4,1.1-6.6l6.6-25.7
			c0.5-1.8,0.9-3.7,1-5.5c0-1.9-0.9-3.9-4-3.9c-5,0-9.4,7.3-11.3,14.4L152.1,84.5z M143.8,36.9l-10.1,39.5c-0.3,0.9-0.5,1.9-0.5,2.9
			c-0.1,1.8,0.5,2.8,2.1,2.8c3.6,0,6.5-6.5,7.2-8.1l1,0.4c-0.4,1-3.9,11.1-11.7,11.1c-4.1,0-6.2-2.6-6.1-5.5c0-1.1,0.1-2.1,0.3-3.1
			c-1.4,2.9-5,8.7-10.8,8.7c-6,0-9.9-4.3-9.6-12.2c0.2-7.4,3.7-18.4,5.3-22.8c2.8-7.3,7.2-14.6,16.1-14.6c6.7,0,7.6,5.1,7.9,6.2
			l1.2-5.1L143.8,36.9z M119.6,47.4c-1.3,3.7-6.7,20.2-7,29.5c-0.1,4.2,1.3,6,4.5,6c4.5,0,8.2-5.8,10.7-13.5c3-10,5.4-20.2,5.6-25.4
			c0.1-3.4-1.6-6.5-5-6.5C124.6,37.7,121.7,41.2,119.6,47.4z M218.9,38.2l-9.2,35.6c-0.6,2-1,4.1-1.1,6.2c0,2.9,1.9,5.5,6.2,5.5
			c7.5,0,11.3-9.9,11.7-11.1l-1-0.4c-0.7,1.6-3.8,8.1-7.1,8.1c-1.9,0-2.2-1-2.2-2.6c0-1.1,0.2-2.1,0.5-3.1l10-39.5h-21.1l4.1-16.1
			h-7.5l-4.1,16.1h-6.9l-0.3,1.2h6.9l-9.1,35.6c-0.7,2.1-1,4.2-1.1,6.4c0,2.8,1.9,5.3,6,5.3c7.5,0,11.3-9.9,11.7-11.1l-1-0.4
			c-0.7,1.7-3.7,8.1-7.2,8.1c-1.5,0-2.1-0.8-2.1-2.5c0-1.1,0.2-2.2,0.5-3.2l9.7-38.2L218.9,38.2z M32.2,20.8
			c3.2-0.7,8.7-3.5,8.7-7.2c0-1.7-0.9-2.8-3.1-2.8c-4.1,0-8.5,6.6-8.5,12.8c0,2.3,0.9,4.3,4.1,4.3c3.5,0,5.1-4,5.4-4.8l-0.6-0.3
			c-0.6,1.5-2,3.9-4.3,3.9c-1.3,0-2.1-0.9-2.1-2.6C31.9,22.9,32,21.8,32.2,20.8z M226.3,19.2c-2.5,0-4.3,2-4.3,4.8
			c-0.1,2.2,1.5,4,3.7,4.2c0.1,0,0.1,0,0.2,0c2.4-0.1,4.4-2.1,4.3-4.5c0-0.1,0-0.1,0-0.2C230.2,21.1,228.6,19.2,226.3,19.2
			L226.3,19.2z M0.6,27.5h7.7l0.2-0.7H6.1L12,3.5h1c2.7,0,3.3,0.3,2.5,5h0.6l1.5-5.7h-14L2.2,8.6h0.6c1.6-4,2.2-5,5-5h1.3L3.1,26.8
			H0.8L0.6,27.5z"/>
	</g>
</g>
</svg>
